<svg xmlns="http://www.w3.org/2000/svg" width="70" height="72" viewBox="0 0 70 72" fill="none">
<rect width="70" height="72" fill="#F5F5F5"/>
<path d="M-466 -77C-466 -78.1046 -465.105 -79 -464 -79H353C354.105 -79 355 -78.1046 355 -77V148C355 149.105 354.105 150 353 150H-464C-465.105 150 -466 149.105 -466 148V-77Z" fill="#D3D3D3"/>
<path d="M-464 -78H353V-80H-464V-78ZM354 -77V148H356V-77H354ZM353 149H-464V151H353V149ZM-465 148V-77H-467V148H-465ZM-464 149C-464.552 149 -465 148.552 -465 148H-467C-467 149.657 -465.657 151 -464 151V149ZM354 148C354 148.552 353.552 149 353 149V151C354.657 151 356 149.657 356 148H354ZM353 -78C353.552 -78 354 -77.5523 354 -77H356C356 -78.6568 354.657 -80 353 -80V-78ZM-464 -80C-465.657 -80 -467 -78.6569 -467 -77H-465C-465 -77.5523 -464.552 -78 -464 -78V-80Z" fill="black" fill-opacity="0.1"/>
<rect x="-29" y="-29" width="128" height="128" rx="24" fill="#6122E7"/>
<path d="M68.3517 59.3C69.1517 60.9667 69.5851 62.4 69.6517 63.6C69.7184 64.7333 69.3517 65.7667 68.5517 66.7C67.8184 67.5667 66.5851 68.4333 64.8517 69.3C62.1851 70.5667 60.1184 70.9333 58.6517 70.4C57.1851 69.9333 55.8184 68.3667 54.5517 65.7L34.9517 24.7L15.4517 65.7C14.1184 68.3 12.7184 69.8333 11.2517 70.3C9.85172 70.8333 7.81839 70.4667 5.15172 69.2C3.41839 68.4 2.15172 67.5667 1.35172 66.7C0.618386 65.7667 0.285053 64.7 0.35172 63.5C0.418386 62.2333 0.885053 60.7667 1.75172 59.1L28.0517 4.4C28.7184 3.06667 29.6851 2 30.9517 1.2C32.2851 0.399995 33.6517 -5.72205e-06 35.0517 -5.72205e-06C36.0517 -5.72205e-06 36.9851 0.199996 37.8517 0.599998C38.7184 0.933331 39.4851 1.43333 40.1517 2.1C40.8851 2.76666 41.4851 3.56666 41.9517 4.5L68.3517 59.3ZM18.1517 53.6L24.3517 40.7H45.6517L51.8517 53.6H18.1517Z" fill="white"/>
</svg>